<svg width="1200" height="630" viewBox="0 0 1200 630" xmlns="http://www.w3.org/2000/svg">
  <defs>
    <linearGradient id="dawn" x1="0" y1="0" x2="0.35" y2="1">
      <stop offset="0" stop-color="#1e1b4b"/>
      <stop offset="0.4" stop-color="#4c1d95"/>
      <stop offset="0.78" stop-color="#b45309"/>
      <stop offset="1" stop-color="#f5b942"/>
    </linearGradient>
    <radialGradient id="sun" cx="0.5" cy="0.5" r="0.5">
      <stop offset="0" stop-color="#fde68a"/>
      <stop offset="1" stop-color="#f59e0b" stop-opacity="0"/>
    </radialGradient>
  </defs>
  <rect width="1200" height="630" fill="url(#dawn)"/>
  <circle cx="600" cy="560" r="230" fill="url(#sun)"/>
  <text x="600" y="250" text-anchor="middle" font-family="Noto Sans, DejaVu Sans, sans-serif"
        font-size="64" font-weight="700" fill="#ffffff">Fernando Family Astrology</text>
  <text x="600" y="330" text-anchor="middle" font-family="Noto Sans Sinhala, sans-serif"
        font-size="48" font-weight="600" fill="#fef3c7">Fernando Family ජ්‍යෝතිෂ</text>
  <text x="600" y="395" text-anchor="middle" font-family="Noto Sans Sinhala, Noto Sans, sans-serif"
        font-size="30" fill="rgba(255,255,255,0.85)">Pancha Pakshi Live · පංච පක්ෂි සජීවී කාල සටහන</text>
  <g transform="translate(390 470)" fill="rgba(255,255,255,0.85)">
      <ellipse cx="0" cy="0" rx="26" ry="14"/>
      <circle cx="22" cy="-10" r="8"/>
      <path d="M28 -11 l12 3 -12 3 z"/>
      <path d="M-18 -4 q-16 -14 -34 -10 q10 12 26 14 z" opacity="0.8"/>
    </g>
<g transform="translate(500 452)" fill="rgba(255,255,255,0.85)">
      <ellipse cx="0" cy="0" rx="26" ry="14"/>
      <circle cx="22" cy="-10" r="8"/>
      <path d="M28 -11 l12 3 -12 3 z"/>
      <path d="M-18 -4 q-16 -14 -34 -10 q10 12 26 14 z" opacity="0.8"/>
    </g>
<g transform="translate(610 470)" fill="rgba(255,255,255,0.85)">
      <ellipse cx="0" cy="0" rx="26" ry="14"/>
      <circle cx="22" cy="-10" r="8"/>
      <path d="M28 -11 l12 3 -12 3 z"/>
      <path d="M-18 -4 q-16 -14 -34 -10 q10 12 26 14 z" opacity="0.8"/>
    </g>
<g transform="translate(720 452)" fill="rgba(255,255,255,0.85)">
      <ellipse cx="0" cy="0" rx="26" ry="14"/>
      <circle cx="22" cy="-10" r="8"/>
      <path d="M28 -11 l12 3 -12 3 z"/>
      <path d="M-18 -4 q-16 -14 -34 -10 q10 12 26 14 z" opacity="0.8"/>
    </g>
<g transform="translate(830 470)" fill="rgba(255,255,255,0.85)">
      <ellipse cx="0" cy="0" rx="26" ry="14"/>
      <circle cx="22" cy="-10" r="8"/>
      <path d="M28 -11 l12 3 -12 3 z"/>
      <path d="M-18 -4 q-16 -14 -34 -10 q10 12 26 14 z" opacity="0.8"/>
    </g>
</svg>